<svg width="41" height="62" viewBox="0 0 41 62" fill="none" xmlns="http://www.w3.org/2000/svg">
<circle cx="21" cy="20" r="20" fill="#D9D9D9"/>
<path d="M4.79199 55.2881H2.20117V53.9277H4.79199C5.24316 53.9277 5.60775 53.8548 5.88574 53.709C6.16374 53.5632 6.36654 53.3626 6.49414 53.1074C6.6263 52.8477 6.69238 52.5514 6.69238 52.2188C6.69238 51.9043 6.6263 51.6104 6.49414 51.3369C6.36654 51.0589 6.16374 50.8356 5.88574 50.667C5.60775 50.4984 5.24316 50.4141 4.79199 50.4141H2.72754V59H1.01172V49.0469H4.79199C5.56217 49.0469 6.21615 49.1836 6.75391 49.457C7.29622 49.7259 7.70866 50.0996 7.99121 50.5781C8.27376 51.0521 8.41504 51.5944 8.41504 52.2051C8.41504 52.8477 8.27376 53.3991 7.99121 53.8594C7.70866 54.3197 7.29622 54.6729 6.75391 54.9189C6.21615 55.165 5.56217 55.2881 4.79199 55.2881ZM11.4434 53.0117V59H9.7959V51.6035H11.3682L11.4434 53.0117ZM13.7061 51.5557L13.6924 53.0869C13.5921 53.0687 13.4827 53.055 13.3643 53.0459C13.2503 53.0368 13.1364 53.0322 13.0225 53.0322C12.7399 53.0322 12.4915 53.0732 12.2773 53.1553C12.0632 53.2327 11.8831 53.3467 11.7373 53.4971C11.596 53.6429 11.4867 53.8206 11.4092 54.0303C11.3317 54.2399 11.2861 54.4746 11.2725 54.7344L10.8965 54.7617C10.8965 54.2969 10.9421 53.8662 11.0332 53.4697C11.1243 53.0732 11.2611 52.7246 11.4434 52.4238C11.6302 52.123 11.8626 51.8883 12.1406 51.7197C12.4232 51.5511 12.749 51.4668 13.1182 51.4668C13.2184 51.4668 13.3255 51.4759 13.4395 51.4941C13.5579 51.5124 13.6468 51.5329 13.7061 51.5557ZM14.2461 55.3838V55.2266C14.2461 54.6934 14.3236 54.1989 14.4785 53.7432C14.6335 53.2829 14.8568 52.8841 15.1484 52.5469C15.4447 52.2051 15.8047 51.9408 16.2285 51.7539C16.6569 51.5625 17.14 51.4668 17.6777 51.4668C18.2201 51.4668 18.7031 51.5625 19.127 51.7539C19.5553 51.9408 19.9176 52.2051 20.2139 52.5469C20.5101 52.8841 20.7357 53.2829 20.8906 53.7432C21.0456 54.1989 21.123 54.6934 21.123 55.2266V55.3838C21.123 55.917 21.0456 56.4115 20.8906 56.8672C20.7357 57.3229 20.5101 57.7217 20.2139 58.0635C19.9176 58.4007 19.5576 58.665 19.1338 58.8564C18.71 59.0433 18.2292 59.1367 17.6914 59.1367C17.1491 59.1367 16.6637 59.0433 16.2354 58.8564C15.8115 58.665 15.4515 58.4007 15.1553 58.0635C14.859 57.7217 14.6335 57.3229 14.4785 56.8672C14.3236 56.4115 14.2461 55.917 14.2461 55.3838ZM15.8936 55.2266V55.3838C15.8936 55.7165 15.9277 56.0309 15.9961 56.3271C16.0645 56.6234 16.1715 56.8831 16.3174 57.1064C16.4632 57.3298 16.6501 57.5052 16.8779 57.6328C17.1058 57.7604 17.377 57.8242 17.6914 57.8242C17.9967 57.8242 18.2611 57.7604 18.4844 57.6328C18.7122 57.5052 18.8991 57.3298 19.0449 57.1064C19.1908 56.8831 19.2979 56.6234 19.3662 56.3271C19.4391 56.0309 19.4756 55.7165 19.4756 55.3838V55.2266C19.4756 54.8984 19.4391 54.5885 19.3662 54.2969C19.2979 54.0007 19.1885 53.7386 19.0381 53.5107C18.8923 53.2829 18.7054 53.1051 18.4775 52.9775C18.2542 52.8454 17.9876 52.7793 17.6777 52.7793C17.3678 52.7793 17.099 52.8454 16.8711 52.9775C16.6478 53.1051 16.4632 53.2829 16.3174 53.5107C16.1715 53.7386 16.0645 54.0007 15.9961 54.2969C15.9277 54.5885 15.8936 54.8984 15.8936 55.2266ZM24.623 59H22.9688V51.125C22.9688 50.528 23.0872 50.0244 23.3242 49.6143C23.5658 49.2041 23.9098 48.8919 24.3564 48.6777C24.8076 48.4635 25.3431 48.3564 25.9629 48.3564C26.3275 48.3564 26.6784 48.3952 27.0156 48.4727C27.3574 48.5501 27.7106 48.6481 28.0752 48.7666L27.8223 50.1064C27.5898 50.029 27.3324 49.9561 27.0498 49.8877C26.7673 49.8148 26.4414 49.7783 26.0723 49.7783C25.5755 49.7783 25.2087 49.8923 24.9717 50.1201C24.7393 50.3434 24.623 50.6784 24.623 51.125V59ZM26.1064 51.6035V52.8066H21.834V51.6035H26.1064ZM28.8545 51.6035V59H27.207V51.6035H28.8545ZM32.457 48.5V59H30.8027V48.5H32.457ZM37.5225 59.1367C36.9756 59.1367 36.4811 59.0479 36.0391 58.8701C35.6016 58.6878 35.2279 58.4349 34.918 58.1113C34.6126 57.7878 34.3779 57.4072 34.2139 56.9697C34.0498 56.5322 33.9678 56.0605 33.9678 55.5547V55.2812C33.9678 54.7025 34.0521 54.1784 34.2207 53.709C34.3893 53.2396 34.624 52.8385 34.9248 52.5059C35.2256 52.1686 35.5811 51.9111 35.9912 51.7334C36.4014 51.5557 36.8457 51.4668 37.3242 51.4668C37.8529 51.4668 38.3154 51.5557 38.7119 51.7334C39.1084 51.9111 39.4365 52.1618 39.6963 52.4854C39.9606 52.8044 40.1566 53.1849 40.2842 53.627C40.4163 54.069 40.4824 54.5566 40.4824 55.0898V55.7939H34.7676V54.6113H38.8555V54.4814C38.8464 54.1852 38.7871 53.9072 38.6777 53.6475C38.5729 53.3877 38.4111 53.1781 38.1924 53.0186C37.9736 52.859 37.682 52.7793 37.3174 52.7793C37.0439 52.7793 36.8001 52.8385 36.5859 52.957C36.3763 53.071 36.2008 53.2373 36.0596 53.4561C35.9183 53.6748 35.8089 53.9391 35.7314 54.249C35.6585 54.5544 35.6221 54.8984 35.6221 55.2812V55.5547C35.6221 55.8783 35.6654 56.179 35.752 56.457C35.8431 56.7305 35.9753 56.9697 36.1484 57.1748C36.3216 57.3799 36.5312 57.5417 36.7773 57.6602C37.0234 57.7741 37.3037 57.8311 37.6182 57.8311C38.0146 57.8311 38.3678 57.7513 38.6777 57.5918C38.9876 57.4323 39.2565 57.2067 39.4844 56.915L40.3525 57.7559C40.193 57.9883 39.9857 58.2116 39.7305 58.4258C39.4753 58.6354 39.1631 58.8063 38.7939 58.9385C38.4294 59.0706 38.0055 59.1367 37.5225 59.1367Z" fill="white"/>
<path d="M21 20C24.5508 20 27.4286 17.1222 27.4286 13.5714C27.4286 10.0206 24.5508 7.14285 21 7.14285C17.4492 7.14285 14.5714 10.0206 14.5714 13.5714C14.5714 17.1222 17.4492 20 21 20ZM25.5 21.6071H24.6613C23.5463 22.1194 22.3058 22.4107 21 22.4107C19.6942 22.4107 18.4587 22.1194 17.3387 21.6071H16.5C12.7734 21.6071 9.75 24.6306 9.75 28.3571V30.4464C9.75 31.7773 10.8298 32.8571 12.1607 32.8571H29.8393C31.1702 32.8571 32.25 31.7773 32.25 30.4464V28.3571C32.25 24.6306 29.2266 21.6071 25.5 21.6071Z" fill="black"/>
</svg>
