<svg width="21" height="21" viewBox="0 0 21 21" fill="none" xmlns="http://www.w3.org/2000/svg">
<path fill-rule="evenodd" clip-rule="evenodd" d="M10.7 0.880005C5.17671 0.880005 0.700001 5.46975 0.700001 11.1325C0.700001 15.6604 3.56575 19.503 7.53836 20.8625C8.03699 20.958 8.22329 20.6378 8.22329 20.3682C8.22329 20.121 8.21233 19.3176 8.21233 18.4581C5.42877 19.0761 4.84247 17.2503 4.84247 17.2503C4.38767 16.0649 3.73014 15.7503 3.73014 15.7503C2.82055 15.1155 3.79589 15.1268 3.79589 15.1268C4.79863 15.1998 5.33014 16.1829 5.33014 16.1829C6.22329 17.7503 7.66986 17.2952 8.23973 17.0368C8.3274 16.3739 8.59041 15.9245 8.87534 15.6661C6.65616 15.4076 4.31644 14.5257 4.31644 10.5988C4.31644 9.48086 4.70548 8.56516 5.34658 7.84608C5.24247 7.58766 4.90274 6.54275 5.44521 5.13268C5.44521 5.13268 6.28356 4.85741 8.19589 6.18321C8.99589 5.9585 9.85069 5.84053 10.7 5.84053C11.5493 5.84614 12.4041 5.9585 13.2041 6.18321C15.111 4.85741 15.9493 5.13268 15.9493 5.13268C16.4918 6.54275 16.1521 7.58766 16.0479 7.84608C16.689 8.56516 17.0781 9.48086 17.0781 10.5988C17.0781 14.5369 14.7384 15.402 12.5137 15.6548C12.8699 15.975 13.1932 16.5986 13.1932 17.5536C13.1932 18.9244 13.1822 20.0311 13.1822 20.3682C13.1822 20.6434 13.363 20.958 13.8671 20.8625C17.8397 19.503 20.7 15.6661 20.7 11.1325C20.7 5.46975 16.2233 0.880005 10.7 0.880005Z" fill="#FF1111"/>
<path d="M4.4863 15.5987C4.46438 15.6492 4.38767 15.6661 4.31644 15.6324C4.2452 15.5987 4.20137 15.5312 4.22877 15.4807C4.25068 15.4301 4.3274 15.4133 4.39863 15.447C4.46986 15.4807 4.5137 15.5481 4.4863 15.5987Z" fill="#FF1111"/>
<path d="M4.89178 16.0649C4.84247 16.1099 4.74932 16.0874 4.68904 16.02C4.62329 15.947 4.61233 15.8515 4.66164 15.8065C4.71096 15.7616 4.79863 15.7841 4.86438 15.8515C4.93014 15.9245 4.9411 16.02 4.89178 16.0649Z" fill="#FF1111"/>
<path d="M5.2863 16.6548C5.22603 16.6997 5.1274 16.6604 5.06165 16.5649C5.00137 16.475 5.00137 16.3627 5.06165 16.3177C5.12192 16.2728 5.22055 16.3121 5.2863 16.402C5.35206 16.4975 5.35206 16.6098 5.2863 16.6548Z" fill="#FF1111"/>
<path d="M5.82877 17.2222C5.77397 17.284 5.6589 17.2671 5.57123 17.1828C5.48356 17.0986 5.46164 16.9806 5.51644 16.9188C5.57123 16.857 5.69178 16.8739 5.77397 16.9581C5.86164 17.048 5.88356 17.166 5.82877 17.2222Z" fill="#FF1111"/>
<path d="M6.57397 17.5536C6.55206 17.6323 6.43699 17.6716 6.32192 17.6379C6.20685 17.6042 6.13562 17.5087 6.15754 17.43C6.17945 17.3514 6.29452 17.3121 6.40959 17.3458C6.51918 17.3795 6.59589 17.475 6.57397 17.5536Z" fill="#FF1111"/>
<path d="M7.39041 17.6155C7.39589 17.6997 7.29726 17.7728 7.17671 17.7728C7.05616 17.7784 6.96301 17.7053 6.95753 17.6211C6.95753 17.5368 7.05069 17.4638 7.17123 17.4638C7.29178 17.4638 7.39041 17.5312 7.39041 17.6155Z" fill="#FF1111"/>
<path d="M8.15206 17.4863C8.1685 17.5705 8.0863 17.6548 7.96576 17.6773C7.85069 17.6997 7.7411 17.6492 7.73014 17.5649C7.7137 17.4806 7.80137 17.3964 7.91644 17.3739C8.03151 17.3514 8.13562 17.402 8.15206 17.4863Z" fill="#FF1111"/>
</svg>
