<svg width="20" height="20" viewBox="0 0 20 20" fill="none" xmlns="http://www.w3.org/2000/svg">
<path fill-rule="evenodd" clip-rule="evenodd" d="M10 2.88C5.96801 2.88 2.70001 6.148 2.70001 10.18C2.70001 13.404 4.79201 16.14 7.69201 17.108C8.05601 17.176 8.19201 16.948 8.19201 16.756C8.19201 16.58 8.18401 16.008 8.18401 15.396C6.15201 15.836 5.72401 14.536 5.72401 14.536C5.39201 13.692 4.91201 13.468 4.91201 13.468C4.24801 13.016 4.96001 13.024 4.96001 13.024C5.69201 13.076 6.08001 13.776 6.08001 13.776C6.73201 14.892 7.78801 14.568 8.20401 14.384C8.26801 13.912 8.46001 13.592 8.66801 13.408C7.04801 13.224 5.34001 12.596 5.34001 9.8C5.34001 9.004 5.62401 8.35201 6.09201 7.84C6.01601 7.656 5.76801 6.912 6.16401 5.908C6.16401 5.908 6.77601 5.712 8.17201 6.656C8.75601 6.496 9.38001 6.412 10 6.412C10.62 6.416 11.244 6.496 11.828 6.656C13.22 5.712 13.832 5.908 13.832 5.908C14.228 6.912 13.98 7.656 13.904 7.84C14.372 8.35201 14.656 9.004 14.656 9.8C14.656 12.604 12.948 13.22 11.324 13.4C11.584 13.628 11.82 14.072 11.82 14.752C11.82 15.728 11.812 16.516 11.812 16.756C11.812 16.952 11.944 17.176 12.312 17.108C15.212 16.14 17.3 13.408 17.3 10.18C17.3 6.148 14.032 2.88 10 2.88Z" fill="#DB0000"/>
<path d="M5.46401 13.36C5.44801 13.396 5.39201 13.408 5.34001 13.384C5.28801 13.36 5.25601 13.312 5.27601 13.276C5.29201 13.24 5.34801 13.228 5.40001 13.252C5.45201 13.276 5.48401 13.324 5.46401 13.36Z" fill="#DB0000"/>
<path d="M5.76001 13.692C5.72401 13.724 5.65601 13.708 5.61201 13.66C5.56401 13.608 5.55601 13.54 5.59201 13.508C5.62801 13.476 5.69201 13.492 5.74001 13.54C5.78801 13.592 5.79601 13.66 5.76001 13.692Z" fill="#DB0000"/>
<path d="M6.04801 14.112C6.00401 14.144 5.93201 14.116 5.88401 14.048C5.84001 13.984 5.84001 13.904 5.88401 13.872C5.92801 13.84 6.00001 13.868 6.04801 13.932C6.09601 14 6.09601 14.08 6.04801 14.112Z" fill="#DB0000"/>
<path d="M6.44402 14.516C6.40402 14.56 6.32002 14.548 6.25602 14.488C6.19202 14.428 6.17602 14.344 6.21602 14.3C6.25602 14.256 6.34402 14.268 6.40402 14.328C6.46802 14.392 6.48402 14.476 6.44402 14.516Z" fill="#DB0000"/>
<path d="M6.98801 14.752C6.97201 14.808 6.88801 14.836 6.80401 14.812C6.72001 14.788 6.66801 14.72 6.68401 14.664C6.70001 14.608 6.78401 14.58 6.86801 14.604C6.94801 14.628 7.00401 14.696 6.98801 14.752Z" fill="#DB0000"/>
<path d="M7.58401 14.796C7.58801 14.856 7.51601 14.908 7.42801 14.908C7.34001 14.912 7.27201 14.86 7.26801 14.8C7.26801 14.74 7.33601 14.688 7.42401 14.688C7.51201 14.688 7.58401 14.736 7.58401 14.796Z" fill="#DB0000"/>
<path d="M8.14002 14.704C8.15202 14.764 8.09202 14.824 8.00402 14.84C7.92002 14.856 7.84002 14.82 7.83202 14.76C7.82002 14.7 7.88402 14.64 7.96802 14.624C8.05202 14.608 8.12802 14.644 8.14002 14.704Z" fill="#DB0000"/>
</svg>
