<svg width="62" height="62" viewBox="0 0 62 62" fill="none" xmlns="http://www.w3.org/2000/svg">
<path fill-rule="evenodd" clip-rule="evenodd" d="M41.6562 31C41.6562 30.4861 41.4521 29.9933 41.0888 29.63C40.7254 29.2666 40.2326 29.0625 39.7187 29.0625H11.3718L16.4377 24.7225C16.6311 24.5569 16.79 24.3549 16.9053 24.128C17.0206 23.901 17.09 23.6536 17.1097 23.3998C17.1294 23.146 17.0989 22.8908 17.0199 22.6488C16.941 22.4068 16.8151 22.1827 16.6496 21.9893C16.484 21.796 16.282 21.6371 16.0551 21.5218C15.8281 21.4065 15.5807 21.337 15.3269 21.3173C15.0731 21.2977 14.8179 21.3282 14.5759 21.4071C14.3339 21.4861 14.1098 21.6119 13.9164 21.7775L4.87475 29.5275C4.66205 29.7094 4.49128 29.9352 4.37419 30.1894C4.2571 30.4436 4.19647 30.7201 4.19647 31C4.19647 31.2799 4.2571 31.5564 4.37419 31.8106C4.49128 32.0648 4.66205 32.2906 4.87475 32.4725L13.9164 40.2225C14.3069 40.5568 14.8143 40.7224 15.3269 40.6826C15.8394 40.6429 16.3152 40.4012 16.6496 40.0107C16.9839 39.6201 17.1494 39.1128 17.1097 38.6002C17.07 38.0876 16.8283 37.6118 16.4377 37.2775L11.3744 32.9375H39.7187C40.2326 32.9375 40.7254 32.7334 41.0888 32.37C41.4521 32.0067 41.6562 31.5138 41.6562 31Z" fill="#DB0000"/>
<path d="M24.2188 20.6667C24.2188 22.4802 24.2187 23.3869 24.6553 24.0405C24.8434 24.3215 25.0847 24.5629 25.3658 24.7509C26.0193 25.1875 26.9261 25.1875 28.7396 25.1875H39.7187C41.2603 25.1875 42.7388 25.7999 43.8288 26.8899C44.9189 27.98 45.5312 29.4584 45.5312 31C45.5312 32.5416 44.9189 34.02 43.8288 35.11C42.7388 36.2001 41.2603 36.8125 39.7187 36.8125H28.7396C26.9261 36.8125 26.0193 36.8125 25.3658 37.2465C25.0845 37.4353 24.8431 37.6775 24.6553 37.9595C24.2187 38.6131 24.2188 39.5198 24.2188 41.3333C24.2188 48.639 24.2187 52.2944 26.4895 54.5626C28.7577 56.8333 32.4105 56.8333 39.7162 56.8333H42.2995C49.6103 56.8333 53.2606 56.8333 55.5313 54.5626C57.8021 52.2944 57.8021 48.639 57.8021 41.3333V20.6667C57.8021 13.361 57.8021 9.70557 55.5313 7.43741C53.2606 5.16924 49.6077 5.16666 42.3021 5.16666H39.7187C32.4105 5.16666 28.7577 5.16666 26.4895 7.43741C24.2187 9.70557 24.2188 13.361 24.2188 20.6667Z" fill="#FFE9E9"/>
</svg>
