<svg width="48" height="56" viewBox="0 0 48 56" fill="none" xmlns="http://www.w3.org/2000/svg">
<path opacity="0.6" d="M29 3.33331H27.3333C22.62 3.33331 20.2616 3.33331 18.7983 4.79831C17.3333 6.26165 17.3333 8.61998 17.3333 13.3333V26.6666C17.3333 31.38 17.3333 33.7383 18.7983 35.2016C20.2616 36.6666 22.62 36.6666 27.3333 36.6666H29C33.7133 36.6666 36.0716 36.6666 37.535 35.2016C39 33.7383 39 31.38 39 26.6666V13.3333C39 8.61998 39 6.26165 37.535 4.79831C36.0716 3.33331 33.7133 3.33331 29 3.33331Z" fill="#868686"/>
<path opacity="0.4" d="M17.3333 13.3333C17.3333 10.77 17.3333 8.905 17.5683 7.5H17.3333C13.405 7.5 11.44 7.5 10.22 8.72C9 9.94 9 11.905 9 15.8333V24.1667C9 28.095 9 30.0583 10.22 31.28C11.44 32.5017 13.405 32.5 17.3333 32.5H17.5683C17.3333 31.095 17.3333 29.23 17.3333 26.6667V13.3333Z" fill="#D9D9D9"/>
<path fill-rule="evenodd" clip-rule="evenodd" d="M11.45 19.1167C11.2159 19.3511 11.0844 19.6688 11.0844 20C11.0844 20.3313 11.2159 20.649 11.45 20.8833L14.7833 24.2167C15.0203 24.4375 15.3337 24.5577 15.6575 24.552C15.9814 24.5463 16.2903 24.4151 16.5193 24.186C16.7484 23.957 16.8796 23.6481 16.8853 23.3242C16.891 23.0004 16.7708 22.687 16.55 22.45L15.35 21.25H27.3333C27.6648 21.25 27.9828 21.1183 28.2172 20.8839C28.4516 20.6495 28.5833 20.3315 28.5833 20C28.5833 19.6685 28.4516 19.3506 28.2172 19.1161C27.9828 18.8817 27.6648 18.75 27.3333 18.75H15.35L16.55 17.55C16.6728 17.4356 16.7713 17.2976 16.8396 17.1442C16.9079 16.9909 16.9447 16.8254 16.9476 16.6575C16.9506 16.4897 16.9197 16.323 16.8568 16.1673C16.794 16.0117 16.7004 15.8703 16.5817 15.7516C16.463 15.6329 16.3216 15.5393 16.166 15.4765C16.0103 15.4136 15.8436 15.3827 15.6758 15.3857C15.5079 15.3887 15.3424 15.4254 15.1891 15.4937C15.0357 15.562 14.8977 15.6605 14.7833 15.7833L11.45 19.1167Z" fill="black"/>
<path d="M7.24609 51.6396V53H2.24902V51.6396H7.24609ZM2.72754 43.0469V53H1.01172V43.0469H2.72754ZM8.09375 49.3838V49.2266C8.09375 48.6934 8.17122 48.1989 8.32617 47.7432C8.48112 47.2829 8.70443 46.8841 8.99609 46.5469C9.29232 46.2051 9.65234 45.9408 10.0762 45.7539C10.5046 45.5625 10.9876 45.4668 11.5254 45.4668C12.0677 45.4668 12.5508 45.5625 12.9746 45.7539C13.403 45.9408 13.7653 46.2051 14.0615 46.5469C14.3577 46.8841 14.5833 47.2829 14.7383 47.7432C14.8932 48.1989 14.9707 48.6934 14.9707 49.2266V49.3838C14.9707 49.917 14.8932 50.4115 14.7383 50.8672C14.5833 51.3229 14.3577 51.7217 14.0615 52.0635C13.7653 52.4007 13.4053 52.665 12.9814 52.8564C12.5576 53.0433 12.0768 53.1367 11.5391 53.1367C10.9967 53.1367 10.5114 53.0433 10.083 52.8564C9.65918 52.665 9.29915 52.4007 9.00293 52.0635C8.70671 51.7217 8.48112 51.3229 8.32617 50.8672C8.17122 50.4115 8.09375 49.917 8.09375 49.3838ZM9.74121 49.2266V49.3838C9.74121 49.7165 9.77539 50.0309 9.84375 50.3271C9.91211 50.6234 10.0192 50.8831 10.165 51.1064C10.3109 51.3298 10.4977 51.5052 10.7256 51.6328C10.9535 51.7604 11.2246 51.8242 11.5391 51.8242C11.8444 51.8242 12.1087 51.7604 12.332 51.6328C12.5599 51.5052 12.7467 51.3298 12.8926 51.1064C13.0384 50.8831 13.1455 50.6234 13.2139 50.3271C13.2868 50.0309 13.3232 49.7165 13.3232 49.3838V49.2266C13.3232 48.8984 13.2868 48.5885 13.2139 48.2969C13.1455 48.0007 13.0361 47.7386 12.8857 47.5107C12.7399 47.2829 12.5531 47.1051 12.3252 46.9775C12.1019 46.8454 11.8353 46.7793 11.5254 46.7793C11.2155 46.7793 10.9466 46.8454 10.7188 46.9775C10.4954 47.1051 10.3109 47.2829 10.165 47.5107C10.0192 47.7386 9.91211 48.0007 9.84375 48.2969C9.77539 48.5885 9.74121 48.8984 9.74121 49.2266ZM21.0889 45.6035H22.5859V52.7949C22.5859 53.4603 22.4447 54.0254 22.1621 54.4902C21.8796 54.9551 21.4854 55.3083 20.9795 55.5498C20.4736 55.7959 19.888 55.9189 19.2227 55.9189C18.9401 55.9189 18.6257 55.8779 18.2793 55.7959C17.9375 55.7139 17.6048 55.5817 17.2812 55.3994C16.9622 55.2217 16.6956 54.987 16.4814 54.6953L17.2539 53.7246C17.5182 54.0391 17.8099 54.2692 18.1289 54.415C18.4479 54.5609 18.7829 54.6338 19.1338 54.6338C19.512 54.6338 19.8333 54.5632 20.0977 54.4219C20.3665 54.2852 20.5739 54.0824 20.7197 53.8135C20.8656 53.5446 20.9385 53.2165 20.9385 52.8291V47.2783L21.0889 45.6035ZM16.0645 49.3838V49.2402C16.0645 48.6797 16.1328 48.1693 16.2695 47.709C16.4062 47.2441 16.6022 46.8454 16.8574 46.5127C17.1126 46.1755 17.4225 45.918 17.7871 45.7402C18.1517 45.5579 18.5641 45.4668 19.0244 45.4668C19.5029 45.4668 19.9108 45.5534 20.248 45.7266C20.5898 45.8997 20.8747 46.1481 21.1025 46.4717C21.3304 46.7907 21.5081 47.1735 21.6357 47.6201C21.7679 48.0622 21.8659 48.5544 21.9297 49.0967V49.5547C21.8704 50.0833 21.7702 50.5664 21.6289 51.0039C21.4876 51.4414 21.3008 51.8197 21.0684 52.1387C20.8359 52.4577 20.5488 52.7038 20.207 52.877C19.8698 53.0501 19.471 53.1367 19.0107 53.1367C18.5596 53.1367 18.1517 53.0433 17.7871 52.8564C17.4271 52.6696 17.1172 52.4076 16.8574 52.0703C16.6022 51.7331 16.4062 51.3366 16.2695 50.8809C16.1328 50.4206 16.0645 49.9215 16.0645 49.3838ZM17.7119 49.2402V49.3838C17.7119 49.721 17.7438 50.0355 17.8076 50.3271C17.876 50.6188 17.9785 50.8763 18.1152 51.0996C18.2565 51.3184 18.4342 51.4915 18.6484 51.6191C18.8672 51.7422 19.1247 51.8037 19.4209 51.8037C19.8083 51.8037 20.125 51.7217 20.3711 51.5576C20.6217 51.3936 20.8132 51.1725 20.9453 50.8945C21.082 50.612 21.1777 50.2975 21.2324 49.9512V48.7139C21.2051 48.445 21.1481 48.1943 21.0615 47.9619C20.9795 47.7295 20.8678 47.5267 20.7266 47.3535C20.5853 47.1758 20.4076 47.0391 20.1934 46.9434C19.9792 46.8431 19.7262 46.793 19.4346 46.793C19.1383 46.793 18.8809 46.8568 18.6621 46.9844C18.4434 47.112 18.2633 47.2874 18.1221 47.5107C17.9854 47.734 17.8828 47.9938 17.8145 48.29C17.7461 48.5863 17.7119 48.903 17.7119 49.2402ZM27.4668 49.3838V49.2266C27.4668 48.6934 27.5443 48.1989 27.6992 47.7432C27.8542 47.2829 28.0775 46.8841 28.3691 46.5469C28.6654 46.2051 29.0254 45.9408 29.4492 45.7539C29.8776 45.5625 30.3607 45.4668 30.8984 45.4668C31.4408 45.4668 31.9238 45.5625 32.3477 45.7539C32.776 45.9408 33.1383 46.2051 33.4346 46.5469C33.7308 46.8841 33.9564 47.2829 34.1113 47.7432C34.2663 48.1989 34.3438 48.6934 34.3438 49.2266V49.3838C34.3438 49.917 34.2663 50.4115 34.1113 50.8672C33.9564 51.3229 33.7308 51.7217 33.4346 52.0635C33.1383 52.4007 32.7783 52.665 32.3545 52.8564C31.9307 53.0433 31.4499 53.1367 30.9121 53.1367C30.3698 53.1367 29.8844 53.0433 29.4561 52.8564C29.0322 52.665 28.6722 52.4007 28.376 52.0635C28.0798 51.7217 27.8542 51.3229 27.6992 50.8672C27.5443 50.4115 27.4668 49.917 27.4668 49.3838ZM29.1143 49.2266V49.3838C29.1143 49.7165 29.1484 50.0309 29.2168 50.3271C29.2852 50.6234 29.3923 50.8831 29.5381 51.1064C29.6839 51.3298 29.8708 51.5052 30.0986 51.6328C30.3265 51.7604 30.5977 51.8242 30.9121 51.8242C31.2174 51.8242 31.4818 51.7604 31.7051 51.6328C31.9329 51.5052 32.1198 51.3298 32.2656 51.1064C32.4115 50.8831 32.5186 50.6234 32.5869 50.3271C32.6598 50.0309 32.6963 49.7165 32.6963 49.3838V49.2266C32.6963 48.8984 32.6598 48.5885 32.5869 48.2969C32.5186 48.0007 32.4092 47.7386 32.2588 47.5107C32.113 47.2829 31.9261 47.1051 31.6982 46.9775C31.4749 46.8454 31.2083 46.7793 30.8984 46.7793C30.5885 46.7793 30.3197 46.8454 30.0918 46.9775C29.8685 47.1051 29.6839 47.2829 29.5381 47.5107C29.3923 47.7386 29.2852 48.0007 29.2168 48.2969C29.1484 48.5885 29.1143 48.8984 29.1143 49.2266ZM40.1748 51.2568V45.6035H41.8291V53H40.2705L40.1748 51.2568ZM40.4072 49.7188L40.9609 49.7051C40.9609 50.2018 40.9062 50.6598 40.7969 51.0791C40.6875 51.4938 40.5189 51.8561 40.291 52.166C40.0632 52.4714 39.7715 52.7106 39.416 52.8838C39.0605 53.0524 38.6344 53.1367 38.1377 53.1367C37.7777 53.1367 37.4473 53.0843 37.1465 52.9795C36.8457 52.8747 36.5859 52.7129 36.3672 52.4941C36.153 52.2754 35.9867 51.9906 35.8682 51.6396C35.7497 51.2887 35.6904 50.8695 35.6904 50.3818V45.6035H37.3379V50.3955C37.3379 50.6644 37.3698 50.89 37.4336 51.0723C37.4974 51.25 37.584 51.3936 37.6934 51.5029C37.8027 51.6123 37.9303 51.6898 38.0762 51.7354C38.222 51.7809 38.377 51.8037 38.541 51.8037C39.0104 51.8037 39.3796 51.7126 39.6484 51.5303C39.9219 51.3434 40.1156 51.0928 40.2295 50.7783C40.348 50.4639 40.4072 50.1107 40.4072 49.7188ZM46.9082 45.6035V46.8066H42.7383V45.6035H46.9082ZM43.9414 43.792H45.5889V50.9561C45.5889 51.1839 45.6208 51.3594 45.6846 51.4824C45.7529 51.6009 45.8464 51.6807 45.9648 51.7217C46.0833 51.7627 46.2223 51.7832 46.3818 51.7832C46.4958 51.7832 46.6051 51.7764 46.71 51.7627C46.8148 51.749 46.8991 51.7354 46.9629 51.7217L46.9697 52.9795C46.833 53.0205 46.6735 53.057 46.4912 53.0889C46.3135 53.1208 46.1084 53.1367 45.876 53.1367C45.4977 53.1367 45.1628 53.0706 44.8711 52.9385C44.5794 52.8018 44.3516 52.5807 44.1875 52.2754C44.0234 51.9701 43.9414 51.5645 43.9414 51.0586V43.792Z" fill="white"/>
</svg>
